<svg id="visual" viewBox="0 0 500 500" width="500" height="500" xmlns="http://www.w3.org/2000/svg" xmlns:xlink="http://www.w3.org/1999/xlink" version="1.1"><rect x="0" y="0" width="500" height="500" fill="#a80000"></rect><path d="M0 311L71 372L143 350L214 307L286 355L357 322L429 374L500 315L500 501L429 501L357 501L286 501L214 501L143 501L71 501L0 501Z" fill="#f5730a"></path><path d="M0 391L71 362L143 370L214 371L286 390L357 331L429 379L500 368L500 501L429 501L357 501L286 501L214 501L143 501L71 501L0 501Z" fill="#da5b09"></path><path d="M0 397L71 412L143 413L214 386L286 407L357 375L429 376L500 409L500 501L429 501L357 501L286 501L214 501L143 501L71 501L0 501Z" fill="#be4407"></path><path d="M0 434L71 404L143 425L214 413L286 435L357 444L429 417L500 424L500 501L429 501L357 501L286 501L214 501L143 501L71 501L0 501Z" fill="#a32d04"></path><path d="M0 456L71 438L143 438L214 469L286 442L357 437L429 465L500 470L500 501L429 501L357 501L286 501L214 501L143 501L71 501L0 501Z" fill="#871400"></path></svg>