<svg id="visual" viewBox="0 0 660 300" width="660" height="300" xmlns="http://www.w3.org/2000/svg" xmlns:xlink="http://www.w3.org/1999/xlink" version="1.1"><g stroke-width="1" stroke-linejoin="bevel"><path d="M365.7 130L386.7 178L446 131Z" fill="#008496" stroke="#008496"></path><path d="M386.7 178L464 191L446 131Z" fill="#005e84" stroke="#005e84"></path><path d="M386.7 178L452 214L464 191Z" fill="#00a45e" stroke="#00a45e"></path><path d="M293.3 186L402.7 230L386.7 178Z" fill="#009583" stroke="#009583"></path><path d="M386.7 178L402.7 230L452 214Z" fill="#008496" stroke="#008496"></path><path d="M521.3 193L506.3 159L464 191Z" fill="#005e84" stroke="#005e84"></path><path d="M464 191L506.3 159L446 131Z" fill="#005e84" stroke="#005e84"></path><path d="M423 21L366.7 36L446 131Z" fill="#003a64" stroke="#003a64"></path><path d="M446 131L366.7 36L365.7 130Z" fill="#005e84" stroke="#005e84"></path><path d="M282.3 125L293.3 186L365.7 130Z" fill="#009583" stroke="#009583"></path><path d="M365.7 130L293.3 186L386.7 178Z" fill="#004c75" stroke="#004c75"></path><path d="M486.3 30L423 21L446 131Z" fill="#007196" stroke="#007196"></path><path d="M366.7 36L312.3 61L365.7 130Z" fill="#002953" stroke="#002953"></path><path d="M312.3 61L282.3 125L365.7 130Z" fill="#009583" stroke="#009583"></path><path d="M452 214L521.3 193L464 191Z" fill="#009583" stroke="#009583"></path><path d="M519.3 262L521.3 193L452 214Z" fill="#005e84" stroke="#005e84"></path><path d="M549.7 115L486.3 30L446 131Z" fill="#040030" stroke="#040030"></path><path d="M549.7 115L446 131L506.3 159Z" fill="#003a64" stroke="#003a64"></path><path d="M486.3 30L430 0L423 21Z" fill="#008496" stroke="#008496"></path><path d="M423 21L360.7 0L366.7 36Z" fill="#007196" stroke="#007196"></path><path d="M366.7 36L360.7 0L312.3 61Z" fill="#004c75" stroke="#004c75"></path><path d="M521.3 193L549.7 115L506.3 159Z" fill="#005e84" stroke="#005e84"></path><path d="M430 0L360.7 0L423 21Z" fill="#040030" stroke="#040030"></path><path d="M342.7 300L426 300L402.7 230Z" fill="#001842" stroke="#001842"></path><path d="M402.7 230L426 300L452 214Z" fill="#005e84" stroke="#005e84"></path><path d="M230 151L255.3 210L293.3 186Z" fill="#00a45e" stroke="#00a45e"></path><path d="M293.3 186L342.7 300L402.7 230Z" fill="#003a64" stroke="#003a64"></path><path d="M426 300L519.3 262L452 214Z" fill="#004c75" stroke="#004c75"></path><path d="M521.3 193L600.7 176L549.7 115Z" fill="#004c75" stroke="#004c75"></path><path d="M486.3 30L497.3 0L430 0Z" fill="#001842" stroke="#001842"></path><path d="M586.7 0L497.3 0L486.3 30Z" fill="#008496" stroke="#008496"></path><path d="M280.3 300L342.7 300L293.3 186Z" fill="#040030" stroke="#040030"></path><path d="M282.3 125L230 151L293.3 186Z" fill="#040030" stroke="#040030"></path><path d="M227 86L230 151L282.3 125Z" fill="#00a45e" stroke="#00a45e"></path><path d="M227 86L282.3 125L312.3 61Z" fill="#040030" stroke="#040030"></path><path d="M277.3 0L227 86L312.3 61Z" fill="#00a45e" stroke="#00a45e"></path><path d="M360.7 0L277.3 0L312.3 61Z" fill="#005e84" stroke="#005e84"></path><path d="M594.7 223L600.7 176L521.3 193Z" fill="#002953" stroke="#002953"></path><path d="M549.7 115L602.7 25L486.3 30Z" fill="#002953" stroke="#002953"></path><path d="M255.3 210L280.3 300L293.3 186Z" fill="#004c75" stroke="#004c75"></path><path d="M206 300L280.3 300L255.3 210Z" fill="#002953" stroke="#002953"></path><path d="M426 300L534.3 300L519.3 262Z" fill="#00af23" stroke="#00af23"></path><path d="M519.3 262L594.7 223L521.3 193Z" fill="#040030" stroke="#040030"></path><path d="M573.7 300L594.7 223L519.3 262Z" fill="#001842" stroke="#001842"></path><path d="M277.3 0L244 0L227 86Z" fill="#001842" stroke="#001842"></path><path d="M175.7 123L185 124L164.7 63Z" fill="#007196" stroke="#007196"></path><path d="M227 86L185 124L230 151Z" fill="#003a64" stroke="#003a64"></path><path d="M230 151L179.7 186L255.3 210Z" fill="#009583" stroke="#009583"></path><path d="M660 73L602.7 25L549.7 115Z" fill="#008496" stroke="#008496"></path><path d="M602.7 25L586.7 0L486.3 30Z" fill="#001842" stroke="#001842"></path><path d="M185 124L179.7 186L230 151Z" fill="#040030" stroke="#040030"></path><path d="M164.7 63L185 124L227 86Z" fill="#009583" stroke="#009583"></path><path d="M185 124L175.7 123L179.7 186Z" fill="#007196" stroke="#007196"></path><path d="M534.3 300L573.7 300L519.3 262Z" fill="#001842" stroke="#001842"></path><path d="M138.7 204L180 202L179.7 186Z" fill="#007196" stroke="#007196"></path><path d="M179.7 186L180 202L255.3 210Z" fill="#001842" stroke="#001842"></path><path d="M244 0L164.7 63L227 86Z" fill="#001842" stroke="#001842"></path><path d="M175.7 123L138.7 204L179.7 186Z" fill="#007196" stroke="#007196"></path><path d="M660 274L660 142L594.7 223Z" fill="#007196" stroke="#007196"></path><path d="M594.7 223L660 142L600.7 176Z" fill="#00a45e" stroke="#00a45e"></path><path d="M600.7 176L660 101L549.7 115Z" fill="#004c75" stroke="#004c75"></path><path d="M180 202L206 300L255.3 210Z" fill="#005e84" stroke="#005e84"></path><path d="M660 142L660 101L600.7 176Z" fill="#005e84" stroke="#005e84"></path><path d="M602.7 25L660 0L586.7 0Z" fill="#00a45e" stroke="#00a45e"></path><path d="M660 101L660 73L549.7 115Z" fill="#00af23" stroke="#00af23"></path><path d="M81.3 133L138.7 204L175.7 123Z" fill="#040030" stroke="#040030"></path><path d="M180 202L156.7 300L206 300Z" fill="#008496" stroke="#008496"></path><path d="M573.7 300L660 274L594.7 223Z" fill="#00af23" stroke="#00af23"></path><path d="M660 73L660 0L602.7 25Z" fill="#001842" stroke="#001842"></path><path d="M138.7 204L156.7 300L180 202Z" fill="#007196" stroke="#007196"></path><path d="M573.7 300L660 300L660 274Z" fill="#00a45e" stroke="#00a45e"></path><path d="M244 0L123.7 0L164.7 63Z" fill="#005e84" stroke="#005e84"></path><path d="M164.7 63L81.3 133L175.7 123Z" fill="#00af23" stroke="#00af23"></path><path d="M35.3 59L81.3 133L164.7 63Z" fill="#002953" stroke="#002953"></path><path d="M138.7 204L72.3 256L156.7 300Z" fill="#007196" stroke="#007196"></path><path d="M81.3 133L75.3 211L138.7 204Z" fill="#008496" stroke="#008496"></path><path d="M123.7 0L91.3 0L164.7 63Z" fill="#002953" stroke="#002953"></path><path d="M81.3 133L0 145L75.3 211Z" fill="#007196" stroke="#007196"></path><path d="M75.3 211L72.3 256L138.7 204Z" fill="#003a64" stroke="#003a64"></path><path d="M91.3 0L35.3 59L164.7 63Z" fill="#040030" stroke="#040030"></path><path d="M0 245L56.3 300L72.3 256Z" fill="#007196" stroke="#007196"></path><path d="M0 245L72.3 256L75.3 211Z" fill="#001842" stroke="#001842"></path><path d="M72.3 256L56.3 300L156.7 300Z" fill="#005e84" stroke="#005e84"></path><path d="M0 77L0 145L81.3 133Z" fill="#005e84" stroke="#005e84"></path><path d="M0 0L0 77L35.3 59Z" fill="#003a64" stroke="#003a64"></path><path d="M35.3 59L0 77L81.3 133Z" fill="#00a45e" stroke="#00a45e"></path><path d="M0 145L0 208L75.3 211Z" fill="#009583" stroke="#009583"></path><path d="M0 208L0 245L75.3 211Z" fill="#040030" stroke="#040030"></path><path d="M91.3 0L0 0L35.3 59Z" fill="#002953" stroke="#002953"></path><path d="M0 245L0 300L56.3 300Z" fill="#007196" stroke="#007196"></path></g></svg>