<svg id="visual" viewBox="0 0 660 300" width="660" height="300" xmlns="http://www.w3.org/2000/svg" xmlns:xlink="http://www.w3.org/1999/xlink" version="1.1"><g stroke-width="1" stroke-linejoin="bevel"><path d="M337.7 167L327.3 179L341.7 208Z" fill="#8edf4b" stroke="#8edf4b"></path><path d="M337.7 167L310.3 115L327.3 179Z" fill="#032533" stroke="#032533"></path><path d="M327.3 179L294.3 259L341.7 208Z" fill="#26b474" stroke="#26b474"></path><path d="M240 213L294.3 259L327.3 179Z" fill="#032533" stroke="#032533"></path><path d="M337.7 167L327.7 94L310.3 115Z" fill="#59ca64" stroke="#59ca64"></path><path d="M233 142L240 213L327.3 179Z" fill="#59ca64" stroke="#59ca64"></path><path d="M284.3 300L339.7 300L294.3 259Z" fill="#00525e" stroke="#00525e"></path><path d="M294.3 259L339.7 300L341.7 208Z" fill="#009c7b" stroke="#009c7b"></path><path d="M244 69L233 142L310.3 115Z" fill="#003b4a" stroke="#003b4a"></path><path d="M310.3 115L233 142L327.3 179Z" fill="#59ca64" stroke="#59ca64"></path><path d="M433 89L337.7 167L476 154Z" fill="#26b474" stroke="#26b474"></path><path d="M433 89L400.7 71L337.7 167Z" fill="#00525e" stroke="#00525e"></path><path d="M337.7 167L400.7 71L327.7 94Z" fill="#00101c" stroke="#00101c"></path><path d="M476 154L337.7 167L341.7 208Z" fill="#006a6d" stroke="#006a6d"></path><path d="M237 300L284.3 300L294.3 259Z" fill="#008378" stroke="#008378"></path><path d="M487.3 201L476 154L341.7 208Z" fill="#003b4a" stroke="#003b4a"></path><path d="M454 279L487.3 201L341.7 208Z" fill="#006a6d" stroke="#006a6d"></path><path d="M433 300L454 279L341.7 208Z" fill="#003b4a" stroke="#003b4a"></path><path d="M339.7 300L433 300L341.7 208Z" fill="#009c7b" stroke="#009c7b"></path><path d="M170.7 70L202 154L233 142Z" fill="#003b4a" stroke="#003b4a"></path><path d="M233 142L202 154L240 213Z" fill="#00101c" stroke="#00101c"></path><path d="M240 213L237 300L294.3 259Z" fill="#c8f023" stroke="#c8f023"></path><path d="M489.3 100L472 96L476 154Z" fill="#003b4a" stroke="#003b4a"></path><path d="M476 154L472 96L433 89Z" fill="#006a6d" stroke="#006a6d"></path><path d="M433 89L444 0L400.7 71Z" fill="#032533" stroke="#032533"></path><path d="M291.3 32L244 69L327.7 94Z" fill="#009c7b" stroke="#009c7b"></path><path d="M327.7 94L244 69L310.3 115Z" fill="#8edf4b" stroke="#8edf4b"></path><path d="M161.7 300L237 300L240 213Z" fill="#8edf4b" stroke="#8edf4b"></path><path d="M330.7 0L291.3 32L327.7 94Z" fill="#009c7b" stroke="#009c7b"></path><path d="M330.7 0L327.7 94L400.7 71Z" fill="#00101c" stroke="#00101c"></path><path d="M585.7 109L489.3 100L476 154Z" fill="#8edf4b" stroke="#8edf4b"></path><path d="M444 0L330.7 0L400.7 71Z" fill="#59ca64" stroke="#59ca64"></path><path d="M454 279L526.3 220L487.3 201Z" fill="#00525e" stroke="#00525e"></path><path d="M487.3 201L526.3 220L476 154Z" fill="#26b474" stroke="#26b474"></path><path d="M511.3 300L526.3 220L454 279Z" fill="#26b474" stroke="#26b474"></path><path d="M160.7 157L164.7 186L202 154Z" fill="#008378" stroke="#008378"></path><path d="M202 154L164.7 186L240 213Z" fill="#006a6d" stroke="#006a6d"></path><path d="M291.3 32L254 0L244 69Z" fill="#032533" stroke="#032533"></path><path d="M444 0L433 89L497.3 33Z" fill="#c8f023" stroke="#c8f023"></path><path d="M170.7 70L160.7 157L202 154Z" fill="#003b4a" stroke="#003b4a"></path><path d="M330.7 0L286.3 0L291.3 32Z" fill="#003b4a" stroke="#003b4a"></path><path d="M244 69L170.7 70L233 142Z" fill="#8edf4b" stroke="#8edf4b"></path><path d="M433 300L511.3 300L454 279Z" fill="#59ca64" stroke="#59ca64"></path><path d="M286.3 0L254 0L291.3 32Z" fill="#00525e" stroke="#00525e"></path><path d="M497.3 33L433 89L472 96Z" fill="#003b4a" stroke="#003b4a"></path><path d="M172.7 0L170.7 70L244 69Z" fill="#003b4a" stroke="#003b4a"></path><path d="M489.3 100L497.3 33L472 96Z" fill="#006a6d" stroke="#006a6d"></path><path d="M585.7 109L497.3 33L489.3 100Z" fill="#26b474" stroke="#26b474"></path><path d="M136.7 265L240 213L164.7 186Z" fill="#00101c" stroke="#00101c"></path><path d="M136.7 265L161.7 300L240 213Z" fill="#008378" stroke="#008378"></path><path d="M111.3 251L136.7 265L164.7 186Z" fill="#006a6d" stroke="#006a6d"></path><path d="M111.3 251L164.7 186L70.3 203Z" fill="#00525e" stroke="#00525e"></path><path d="M511.3 300L556.7 300L526.3 220Z" fill="#00101c" stroke="#00101c"></path><path d="M526.3 220L594.7 164L476 154Z" fill="#003b4a" stroke="#003b4a"></path><path d="M70.3 203L164.7 186L160.7 157Z" fill="#032533" stroke="#032533"></path><path d="M136.7 265L64.3 300L161.7 300Z" fill="#8edf4b" stroke="#8edf4b"></path><path d="M622.7 271L594.7 164L526.3 220Z" fill="#009c7b" stroke="#009c7b"></path><path d="M594.7 164L585.7 109L476 154Z" fill="#59ca64" stroke="#59ca64"></path><path d="M254 0L172.7 0L244 69Z" fill="#26b474" stroke="#26b474"></path><path d="M170.7 70L105.3 85L160.7 157Z" fill="#59ca64" stroke="#59ca64"></path><path d="M172.7 0L105.3 85L170.7 70Z" fill="#26b474" stroke="#26b474"></path><path d="M585.7 109L538.3 0L497.3 33Z" fill="#008378" stroke="#008378"></path><path d="M497.3 33L538.3 0L444 0Z" fill="#00101c" stroke="#00101c"></path><path d="M105.3 85L70.3 203L160.7 157Z" fill="#8edf4b" stroke="#8edf4b"></path><path d="M556.7 300L622.7 271L526.3 220Z" fill="#006a6d" stroke="#006a6d"></path><path d="M594.7 164L660 107L585.7 109Z" fill="#006a6d" stroke="#006a6d"></path><path d="M70.3 203L64.3 300L111.3 251Z" fill="#00525e" stroke="#00525e"></path><path d="M111.3 251L64.3 300L136.7 265Z" fill="#c8f023" stroke="#c8f023"></path><path d="M660 252L660 165L594.7 164Z" fill="#008378" stroke="#008378"></path><path d="M585.7 109L615.7 23L538.3 0Z" fill="#00101c" stroke="#00101c"></path><path d="M660 80L615.7 23L585.7 109Z" fill="#032533" stroke="#032533"></path><path d="M622.7 271L660 252L594.7 164Z" fill="#8edf4b" stroke="#8edf4b"></path><path d="M172.7 0L63.3 44L105.3 85Z" fill="#00101c" stroke="#00101c"></path><path d="M105.3 85L0 151L70.3 203Z" fill="#c8f023" stroke="#c8f023"></path><path d="M70.3 203L0 275L64.3 300Z" fill="#032533" stroke="#032533"></path><path d="M660 165L660 107L594.7 164Z" fill="#8edf4b" stroke="#8edf4b"></path><path d="M660 0L611.7 0L615.7 23Z" fill="#00525e" stroke="#00525e"></path><path d="M615.7 23L611.7 0L538.3 0Z" fill="#8edf4b" stroke="#8edf4b"></path><path d="M660 107L660 80L585.7 109Z" fill="#009c7b" stroke="#009c7b"></path><path d="M556.7 300L660 300L622.7 271Z" fill="#009c7b" stroke="#009c7b"></path><path d="M622.7 271L660 300L660 252Z" fill="#006a6d" stroke="#006a6d"></path><path d="M0 88L0 151L105.3 85Z" fill="#00525e" stroke="#00525e"></path><path d="M0 151L0 275L70.3 203Z" fill="#009c7b" stroke="#009c7b"></path><path d="M63.3 44L0 88L105.3 85Z" fill="#003b4a" stroke="#003b4a"></path><path d="M172.7 0L37.3 0L63.3 44Z" fill="#032533" stroke="#032533"></path><path d="M63.3 44L0 32L0 88Z" fill="#26b474" stroke="#26b474"></path><path d="M660 80L660 0L615.7 23Z" fill="#032533" stroke="#032533"></path><path d="M0 275L0 300L64.3 300Z" fill="#032533" stroke="#032533"></path><path d="M37.3 0L0 32L63.3 44Z" fill="#00525e" stroke="#00525e"></path><path d="M37.3 0L0 0L0 32Z" fill="#006a6d" stroke="#006a6d"></path></g></svg>