<svg id="visual" viewBox="0 0 900 600" width="900" height="600" xmlns="http://www.w3.org/2000/svg" xmlns:xlink="http://www.w3.org/1999/xlink" version="1.1"><path d="M0 97L13.7 96C27.3 95 54.7 93 82 89C109.3 85 136.7 79 163.8 75C191 71 218 69 245.2 67C272.3 65 299.7 63 327 61C354.3 59 381.7 57 409 55C436.3 53 463.7 51 491 48C518.3 45 545.7 41 573 45C600.3 49 627.7 61 654.8 72C682 83 709 93 736.2 87C763.3 81 790.7 59 818 51C845.3 43 872.7 49 886.3 52L900 55L900 0L886.3 0C872.7 0 845.3 0 818 0C790.7 0 763.3 0 736.2 0C709 0 682 0 654.8 0C627.7 0 600.3 0 573 0C545.7 0 518.3 0 491 0C463.7 0 436.3 0 409 0C381.7 0 354.3 0 327 0C299.7 0 272.3 0 245.2 0C218 0 191 0 163.8 0C136.7 0 109.3 0 82 0C54.7 0 27.3 0 13.7 0L0 0Z" fill="#ff6e60"></path><path d="M0 175L13.7 176C27.3 177 54.7 179 82 176C109.3 173 136.7 165 163.8 161C191 157 218 157 245.2 149C272.3 141 299.7 125 327 116C354.3 107 381.7 105 409 112C436.3 119 463.7 135 491 133C518.3 131 545.7 111 573 114C600.3 117 627.7 143 654.8 152C682 161 709 153 736.2 146C763.3 139 790.7 133 818 128C845.3 123 872.7 119 886.3 117L900 115L900 53L886.3 50C872.7 47 845.3 41 818 49C790.7 57 763.3 79 736.2 85C709 91 682 81 654.8 70C627.7 59 600.3 47 573 43C545.7 39 518.3 43 491 46C463.7 49 436.3 51 409 53C381.7 55 354.3 57 327 59C299.7 61 272.3 63 245.2 65C218 67 191 69 163.8 73C136.7 77 109.3 83 82 87C54.7 91 27.3 93 13.7 94L0 95Z" fill="#ff4938"></path><path d="M0 229L13.7 232C27.3 235 54.7 241 82 240C109.3 239 136.7 231 163.8 234C191 237 218 251 245.2 255C272.3 259 299.7 253 327 253C354.3 253 381.7 259 409 264C436.3 269 463.7 273 491 273C518.3 273 545.7 269 573 260C600.3 251 627.7 237 654.8 244C682 251 709 279 736.2 282C763.3 285 790.7 263 818 255C845.3 247 872.7 253 886.3 256L900 259L900 113L886.3 115C872.7 117 845.3 121 818 126C790.7 131 763.3 137 736.2 144C709 151 682 159 654.8 150C627.7 141 600.3 115 573 112C545.7 109 518.3 129 491 131C463.7 133 436.3 117 409 110C381.7 103 354.3 105 327 114C299.7 123 272.3 139 245.2 147C218 155 191 155 163.8 159C136.7 163 109.3 171 82 174C54.7 177 27.3 175 13.7 174L0 173Z" fill="#ff0000"></path><path d="M0 361L13.7 364C27.3 367 54.7 373 82 386C109.3 399 136.7 419 163.8 431C191 443 218 447 245.2 443C272.3 439 299.7 427 327 423C354.3 419 381.7 423 409 436C436.3 449 463.7 471 491 484C518.3 497 545.7 501 573 501C600.3 501 627.7 497 654.8 493C682 489 709 485 736.2 479C763.3 473 790.7 465 818 460C845.3 455 872.7 453 886.3 452L900 451L900 257L886.3 254C872.7 251 845.3 245 818 253C790.7 261 763.3 283 736.2 280C709 277 682 249 654.8 242C627.7 235 600.3 249 573 258C545.7 267 518.3 271 491 271C463.7 271 436.3 267 409 262C381.7 257 354.3 251 327 251C299.7 251 272.3 257 245.2 253C218 249 191 235 163.8 232C136.7 229 109.3 237 82 238C54.7 239 27.3 233 13.7 230L0 227Z" fill="#de000b"></path><path d="M0 601L13.7 601C27.3 601 54.7 601 82 601C109.3 601 136.7 601 163.8 601C191 601 218 601 245.2 601C272.3 601 299.7 601 327 601C354.3 601 381.7 601 409 601C436.3 601 463.7 601 491 601C518.3 601 545.7 601 573 601C600.3 601 627.7 601 654.8 601C682 601 709 601 736.2 601C763.3 601 790.7 601 818 601C845.3 601 872.7 601 886.3 601L900 601L900 449L886.3 450C872.7 451 845.3 453 818 458C790.7 463 763.3 471 736.2 477C709 483 682 487 654.8 491C627.7 495 600.3 499 573 499C545.7 499 518.3 495 491 482C463.7 469 436.3 447 409 434C381.7 421 354.3 417 327 421C299.7 425 272.3 437 245.2 441C218 445 191 441 163.8 429C136.7 417 109.3 397 82 384C54.7 371 27.3 365 13.7 362L0 359Z" fill="#bd0010"></path></svg>